# xmcd
#
# Track frame offsets:
#	150
#	11677
#	23518
#	35604
#	48779
#	61852
#	74143
#	86813
#	99226
#	112209
#	125494
#
# Disc length: 1882 seconds
#
# Revision: 11
# Processed by: cddbd v1.5.2PL0 Copyright (c) Steve Scherf et al.
# Submitted via: EasyCDDAExtractor 12.0.1.1
#
DISCID=9107580b
DTITLE=Supremes - 20th Century Masters
DYEAR=1999
DGENRE=Blues
TTITLE0=Where Did Our Love Go
TTITLE1=Baby Love
TTITLE2=Come See About Me
TTITLE3=Stop! In The Name Of Love
TTITLE4=Back In My Arms Again
TTITLE5=I Hear A Symphony
TTITLE6=You Can't Hurry Love
TTITLE7=You Keep Me Hangin' On
TTITLE8=Reflections
TTITLE9=Love Child
TTITLE10=Someday We'll Be Together
EXTD=
EXTT0=
EXTT1=
EXTT2=
EXTT3=
EXTT4=
EXTT5=
EXTT6=
EXTT7=
EXTT8=
EXTT9=
EXTT10=
PLAYORDER=
